<svg
  xmlns="http://www.w3.org/2000/svg"
  viewBox="0 0 58 58"
  width="58"
  height="58"
>
    <rect x="0" y="0" width="58" height="58" fill="#F0F0F0" />

  <path
    d="M35.9115 34.2635C35.9115 22.8311 44.0046 14.7134 55.8054 14.3009C55.8054 20.1939 55.9085 26.087 55.6826 31.9358C55.6482 32.7461 53.9785 34.126 53.0308 34.1604C47.3194 34.3716 41.5934 34.2635 35.9115 34.2635Z"
    fill="#2E2F5D"
  />
  <path
    d="M13.8323 56.2249C14.5738 44.0705 22.8044 36.0265 33.8833 36.3654C33.8833 42.0522 34.0208 47.7979 33.7507 53.5239C33.7065 54.4668 31.9043 56.053 30.8533 56.1021C25.309 56.3624 19.745 56.2249 13.8323 56.2249Z"
    fill="#2E2F5D"
  />
  <path
    d="M22.4067 20.0122C22.4067 14.4728 22.1857 9.28694 22.5638 4.15018C22.6571 2.94211 24.6804 1.04652 25.9621 0.909016C29.9645 0.491593 34.0405 0.850086 38.0821 0.751868C41.9273 0.663473 42.0108 2.95684 41.4411 5.73148C39.7763 13.5299 31.8551 19.7618 22.4067 20.0122Z"
    fill="#2E2F5D"
  />
  <path
    d="M19.4012 22.7967C19.9414 33.6546 10.9103 42.6169 0.440392 41.4285C0.440392 36.1984 0.297977 30.8554 0.577896 25.537C0.627004 24.5548 2.38018 22.9588 3.41146 22.9097C8.74465 22.6543 14.1024 22.7967 19.4012 22.7967Z"
    fill="#2E2F5D"
  />
  <path
    d="M48.5521 41.2419C50.1144 41.2077 51.6515 41.6402 52.9668 42.4841C54.2821 43.3279 55.3159 44.5449 55.9361 45.9793C56.5562 47.4137 56.7345 49.0005 56.4483 50.5368C56.162 52.0731 55.4241 53.4891 54.3289 54.6039C53.2337 55.7187 51.831 56.4815 50.3 56.795C48.769 57.1085 47.1794 56.9583 45.7342 56.3637C44.289 55.7691 43.0539 54.757 42.1868 53.4569C41.3198 52.1568 40.8601 50.6276 40.8666 49.0649C40.8599 47.0118 41.6631 45.0389 43.102 43.5743C44.5408 42.1097 46.4992 41.2716 48.5521 41.2419Z"
    fill="#02B3BD"
  />
  <path
    d="M14.8096 7.98065C14.3921 11.9093 12.1135 14.9148 7.61515 15.0817C3.11681 15.2487 0.337263 12.8277 0.0229683 8.13779C-0.291327 3.44793 2.64537 0.344266 7.27139 0.354088C11.4996 0.358999 14.6819 3.38409 14.8096 7.98065Z"
    fill="#02B3BD"
  />
</svg>
